<svg width="68" height="71" viewBox="0 0 68 71" fill="none" xmlns="http://www.w3.org/2000/svg">
<g clip-path="url(#clip0_5052_142)">
<path fill-rule="evenodd" clip-rule="evenodd" d="M-1581 10C-1581 4.47715 -1576.52 0 -1571 0H329C334.523 0 339 4.47715 339 10V94.99C339 94.9955 338.996 95 338.99 95V95C338.985 95 338.98 94.9957 338.98 94.9903C338.45 81.6513 327.469 71 314 71H55.519C50.4555 71 46.2962 67.1673 44.8122 62.3261C38.5424 41.8723 19.508 27 -3 27H-1030C-1052.51 27 -1071.54 41.8723 -1077.81 62.3261C-1079.3 67.1673 -1083.46 71 -1088.52 71H-1556C-1569.47 71 -1580.45 81.6513 -1580.98 94.9903C-1580.98 94.9957 -1580.98 95 -1580.99 95V95C-1581 95 -1581 94.9955 -1581 94.99V10Z" fill="#7027E2"/>
</g>
<defs>
<clipPath id="clip0_5052_142">
<rect width="68" height="71" fill="white"/>
</clipPath>
</defs>
</svg>
