<svg width="68" height="71" viewBox="0 0 68 71" fill="none" xmlns="http://www.w3.org/2000/svg">
<g clip-path="url(#clip0_5052_142)">
<path fill-rule="evenodd" clip-rule="evenodd" d="M-482 10C-482 4.47715 -477.523 0 -472 0H1428C1433.52 0 1438 4.47715 1438 10V94.99C1438 94.9955 1438 95 1437.99 95V95C1437.98 95 1437.98 94.9957 1437.98 94.9903C1437.45 81.6513 1426.47 71 1413 71H1154.52C1149.46 71 1145.3 67.1673 1143.81 62.3261C1137.54 41.8723 1118.51 27 1096 27H69C46.492 27 27.4576 41.8723 21.1878 62.3261C19.7038 67.1673 15.5445 71 10.481 71H-457C-470.469 71 -481.45 81.6513 -481.98 94.9903C-481.98 94.9957 -481.985 95 -481.99 95V95C-481.996 95 -482 94.9955 -482 94.99V10Z" fill="#7027E2"/>
</g>
<defs>
<clipPath id="clip0_5052_142">
<rect width="68" height="71" fill="white"/>
</clipPath>
</defs>
</svg>
