<svg width="1168" height="95" viewBox="0 0 1168 95" fill="none" xmlns="http://www.w3.org/2000/svg">
<g clip-path="url(#clip0_5052_142)">
<path fill-rule="evenodd" clip-rule="evenodd" d="M-480 10C-480 4.47715 -475.523 0 -470 0H1430C1435.52 0 1440 4.47715 1440 10V94.99C1440 94.9955 1440 95 1439.99 95V95C1439.98 95 1439.98 94.9957 1439.98 94.9903C1439.45 81.6513 1428.47 71 1415 71H1156.52C1151.46 71 1147.3 67.1673 1145.81 62.3261C1139.54 41.8723 1120.51 27 1098 27H71C48.492 27 29.4576 41.8723 23.1878 62.3261C21.7038 67.1673 17.5445 71 12.481 71H-455C-468.469 71 -479.45 81.6513 -479.98 94.9903C-479.98 94.9957 -479.985 95 -479.99 95V95C-479.996 95 -480 94.9955 -480 94.99V10Z" fill="#7027E2"/>
</g>
<defs>
<clipPath id="clip0_5052_142">
<rect width="1168" height="95" fill="white"/>
</clipPath>
</defs>
</svg>
